%TF.GenerationSoftware,Altium Limited,Altium Designer,21.2.1 (34)*%
G04 Layer_Color=65535*
%FSLAX26Y26*%
%MOIN*%
%TF.SameCoordinates,A0A043E5-24E2-464B-A4FE-AC519CE3A301*%
%TF.FilePolarity,Positive*%
%TF.FileFunction,Legend,Top*%
%TF.Part,Single*%
G01*
G75*
%TA.AperFunction,NonConductor*%
%ADD17C,0.003937*%
%ADD19C,0.005906*%
%ADD24C,0.006000*%
%ADD25C,0.005000*%
%ADD26C,0.003150*%
D17*
X1291518Y122047D02*
Y125984D01*
X1283048Y118001D02*
X1290922Y110127D01*
X1283048Y118001D02*
X1290922Y125875D01*
X1350394Y175197D02*
Y773622D01*
X1259842D02*
X1350394D01*
X1259842Y175197D02*
Y773622D01*
Y175197D02*
X1350394D01*
X88583Y125975D02*
Y98425D01*
X102358D01*
X106950Y103017D01*
Y121384D01*
X102358Y125975D01*
X88583D01*
X116133Y98425D02*
X125316D01*
X120725D01*
Y125975D01*
X116133Y121384D01*
X1259842Y814952D02*
X1278209Y787402D01*
Y814952D02*
X1259842Y787402D01*
X1305759Y810360D02*
X1301168Y814952D01*
X1291984D01*
X1287393Y810360D01*
Y805768D01*
X1291984Y801177D01*
X1301168D01*
X1305759Y796585D01*
Y791993D01*
X1301168Y787402D01*
X1291984D01*
X1287393Y791993D01*
X1314943Y787402D02*
X1324126D01*
X1319535D01*
Y814952D01*
X1314943Y810360D01*
D19*
X1291519Y92520D02*
Y143701D01*
X567577Y859569D02*
X561017Y866129D01*
X547898D01*
X541339Y859569D01*
Y853010D01*
X547898Y846450D01*
X561017D01*
X567577Y839891D01*
Y833331D01*
X561017Y826772D01*
X547898D01*
X541339Y833331D01*
X580696Y866129D02*
X606934D01*
X593815D01*
Y826772D01*
X620053Y866129D02*
Y826772D01*
X646292D01*
X659411Y866129D02*
X672530D01*
X665970D01*
Y826772D01*
X659411D01*
X672530D01*
X692209D02*
Y866129D01*
X718447Y826772D01*
Y866129D01*
X731566D02*
Y826772D01*
Y839891D01*
X757804Y866129D01*
X738126Y846450D01*
X757804Y826772D01*
X770923Y846450D02*
X797162D01*
X810281Y866129D02*
Y839891D01*
X823400Y826772D01*
X836519Y839891D01*
Y866129D01*
X849638Y859569D02*
X856198Y866129D01*
X869317D01*
X875876Y859569D01*
Y853010D01*
X869317Y846450D01*
X862757D01*
X869317D01*
X875876Y839891D01*
Y833331D01*
X869317Y826772D01*
X856198D01*
X849638Y833331D01*
X888996Y826772D02*
Y866129D01*
X902115Y853010D01*
X915234Y866129D01*
Y826772D01*
X928353Y866129D02*
X941472D01*
X934913D01*
Y826772D01*
X928353D01*
X941472D01*
X961151D02*
Y866129D01*
X987389Y826772D01*
Y866129D01*
X1000508D02*
X1013627D01*
X1007068D01*
Y826772D01*
X1000508D01*
X1013627D01*
D24*
X14528Y240441D02*
G03*
X-28472Y283441I-43000J0D01*
G01*
Y661441D02*
G03*
X14528Y704441I0J43000D01*
G01*
Y772441D02*
X376528D01*
X-28472Y283441D02*
Y661441D01*
X14528Y704441D02*
Y772441D01*
Y172441D02*
Y240441D01*
Y172441D02*
X376528D01*
X1182528D02*
X1194528D01*
Y772441D01*
X1182528D02*
X1194528D01*
D25*
X337749Y807441D02*
X329394Y815797D01*
Y832508D01*
X337749Y840864D01*
X346105D01*
X354461Y832508D01*
Y824152D01*
Y832508D01*
X362816Y840864D01*
X371172D01*
X379528Y832508D01*
Y815797D01*
X371172Y807441D01*
X379528Y890997D02*
Y857575D01*
X346105Y890997D01*
X337749D01*
X329394Y882642D01*
Y865930D01*
X337749Y857575D01*
X379528Y107441D02*
Y124152D01*
Y115797D01*
X329394D01*
X337749Y107441D01*
X1234528Y62441D02*
Y79152D01*
Y70797D01*
X1184394D01*
X1192749Y62441D01*
X1184394Y137642D02*
X1192749Y120930D01*
X1209461Y104219D01*
X1226172D01*
X1234528Y112575D01*
Y129286D01*
X1226172Y137642D01*
X1217816D01*
X1209461Y129286D01*
Y104219D01*
X1229528Y807441D02*
Y824152D01*
Y815797D01*
X1179394D01*
X1187749Y807441D01*
X1179394Y849219D02*
Y882642D01*
X1187749D01*
X1221172Y849219D01*
X1229528D01*
D26*
X1315624Y88579D02*
Y75460D01*
X1322184Y68901D01*
X1328744Y75460D01*
Y88579D01*
X1335303D02*
Y68901D01*
Y78740D01*
X1348422D01*
Y88579D01*
Y68901D01*
X1354982D02*
X1361541D01*
X1358261D01*
Y88579D01*
X1354982Y85300D01*
%TF.MD5,041e8436cd4b00104709fc6c2eefacad*%
M02*
