G04*
G04 #@! TF.GenerationSoftware,Altium Limited,Altium Designer,19.1.8 (144)*
G04*
G04 Layer_Physical_Order=1*
G04 Layer_Color=255*
%FSLAX25Y25*%
%MOIN*%
G70*
G01*
G75*
%ADD12C,0.02362*%
%ADD18R,0.04213X0.07480*%
%ADD19O,0.07480X0.02362*%
%ADD24C,0.01968*%
%ADD25C,0.03150*%
%ADD26C,0.05906*%
%ADD27C,0.02362*%
G36*
X60328Y109774D02*
X44193Y93640D01*
X43799Y93049D01*
X43672Y92414D01*
X36464D01*
Y83334D01*
X47000D01*
Y80765D01*
X46953Y80694D01*
X46799Y79921D01*
X46953Y79148D01*
X47391Y78493D01*
X48046Y78055D01*
X48819Y77901D01*
X49592Y78055D01*
X50247Y78493D01*
X50685Y79148D01*
X50839Y79921D01*
X50685Y80694D01*
X50638Y80765D01*
Y83334D01*
X61264D01*
Y83134D01*
X63370D01*
Y87874D01*
Y92614D01*
X61264D01*
Y92414D01*
X48766D01*
X48575Y92876D01*
X63092Y107393D01*
X142912D01*
X142943Y107320D01*
X143544Y106536D01*
X144328Y105935D01*
X145241Y105556D01*
X146221Y105428D01*
X146457Y105220D01*
Y103205D01*
X146221Y102998D01*
X145241Y102869D01*
X144328Y102491D01*
X143544Y101889D01*
X142943Y101105D01*
X142564Y100192D01*
X142435Y99213D01*
X142564Y98233D01*
X142595Y98160D01*
X135722Y91286D01*
X135327Y90696D01*
X135189Y90000D01*
X135189Y90000D01*
Y78868D01*
X134689Y78488D01*
X134252Y78575D01*
X129134D01*
X128361Y78421D01*
X128025Y78197D01*
X124465D01*
X124395Y78244D01*
X123622Y78398D01*
X122849Y78244D01*
X122194Y77806D01*
X121756Y77151D01*
X121602Y76378D01*
X121756Y75605D01*
X122194Y74950D01*
X122849Y74512D01*
X123622Y74358D01*
X124395Y74512D01*
X124465Y74559D01*
X129016D01*
X129134Y74535D01*
X134252D01*
X134898Y74664D01*
X135398Y74383D01*
Y73728D01*
X134898Y73447D01*
X134252Y73575D01*
X129134D01*
X128361Y73421D01*
X127706Y72983D01*
X127268Y72328D01*
X127114Y71555D01*
X127268Y70782D01*
X127706Y70127D01*
X128361Y69689D01*
X129134Y69535D01*
X133952D01*
X134159Y69035D01*
X133699Y68575D01*
X129134D01*
X128504Y68450D01*
X124504D01*
X124504Y68450D01*
X123808Y68311D01*
X123218Y67917D01*
X123218Y67917D01*
X122932Y67631D01*
X122849Y67614D01*
X122194Y67176D01*
X121756Y66521D01*
X121602Y65748D01*
X121756Y64975D01*
X122194Y64320D01*
X122849Y63882D01*
X123622Y63728D01*
X124395Y63882D01*
X125050Y64320D01*
X125379Y64811D01*
X128178D01*
X128361Y64689D01*
X129134Y64535D01*
X134252D01*
X135025Y64689D01*
X135680Y65127D01*
X136118Y65782D01*
X136135Y65865D01*
X138504Y68234D01*
X138898Y68824D01*
X139037Y69520D01*
X139037Y69520D01*
Y77783D01*
X139037Y77783D01*
X138898Y78480D01*
X138827Y78586D01*
Y89246D01*
X145168Y95587D01*
X145241Y95556D01*
X146221Y95428D01*
X146457Y95220D01*
Y93205D01*
X146221Y92998D01*
X145241Y92869D01*
X144328Y92491D01*
X143544Y91889D01*
X142943Y91105D01*
X142564Y90192D01*
X142435Y89213D01*
X142564Y88233D01*
X142943Y87320D01*
X143544Y86536D01*
X144328Y85935D01*
X145241Y85556D01*
X146221Y85427D01*
X146457Y85220D01*
Y59285D01*
X145995Y59093D01*
X142247Y62841D01*
X141657Y63236D01*
X140960Y63374D01*
X140960Y63374D01*
X135095D01*
X135025Y63421D01*
X134252Y63575D01*
X129134D01*
X128361Y63421D01*
X127706Y62983D01*
X127268Y62328D01*
X127114Y61555D01*
X127268Y60782D01*
X127706Y60127D01*
X128361Y59689D01*
X129134Y59535D01*
X134252D01*
X135025Y59689D01*
X135095Y59736D01*
X140207D01*
X141277Y58666D01*
X140958Y58277D01*
X140537Y58559D01*
X139764Y58713D01*
X138991Y58559D01*
X138817Y58443D01*
X134915D01*
X134252Y58575D01*
X129134D01*
X128361Y58421D01*
X127706Y57983D01*
X127268Y57328D01*
X127114Y56555D01*
X127268Y55782D01*
X127706Y55127D01*
X128361Y54689D01*
X129134Y54535D01*
X134252D01*
X135025Y54689D01*
X135198Y54805D01*
X139101D01*
X139764Y54673D01*
X140537Y54827D01*
X141192Y55265D01*
X141630Y55920D01*
X141784Y56693D01*
X141630Y57466D01*
X141348Y57887D01*
X141737Y58206D01*
X146457Y53486D01*
Y33407D01*
X146221Y33200D01*
X145189Y33064D01*
X144227Y32665D01*
X143401Y32032D01*
X142768Y31206D01*
X142369Y30244D01*
X142365Y30213D01*
X146221D01*
Y28213D01*
X142365D01*
X142369Y28181D01*
X142768Y27219D01*
X143401Y26393D01*
X144227Y25760D01*
X145189Y25362D01*
X146221Y25226D01*
X146457Y25019D01*
Y23205D01*
X146221Y22998D01*
X145241Y22869D01*
X144328Y22491D01*
X143544Y21889D01*
X142947Y21111D01*
X104297D01*
X101189Y24218D01*
Y25696D01*
X117277D01*
Y34776D01*
X77477D01*
Y34976D01*
X75370D01*
Y30236D01*
Y25496D01*
X77477D01*
Y25696D01*
X97551D01*
Y23465D01*
X97551Y23465D01*
X97689Y22768D01*
X98084Y22178D01*
X102257Y18005D01*
X102257Y18005D01*
X102847Y17611D01*
X103543Y17472D01*
X103543Y17472D01*
X142879D01*
X142943Y17320D01*
X143544Y16536D01*
X144328Y15935D01*
X145241Y15556D01*
X146221Y15428D01*
X146457Y15220D01*
Y13205D01*
X146221Y12998D01*
X145241Y12869D01*
X144328Y12491D01*
X143544Y11889D01*
X142943Y11105D01*
X142847Y10874D01*
X85551Y10874D01*
X79494D01*
X66189Y24179D01*
Y25696D01*
X71264D01*
Y25496D01*
X73370D01*
Y30236D01*
Y34976D01*
X71264D01*
Y34776D01*
X66311D01*
Y36446D01*
X66433Y36629D01*
X66587Y37402D01*
X66433Y38175D01*
X65995Y38830D01*
X65340Y39268D01*
X64567Y39421D01*
X63794Y39268D01*
X63139Y38830D01*
X62701Y38175D01*
X62547Y37402D01*
X62672Y36771D01*
Y34776D01*
X56170D01*
Y36588D01*
X56197Y36629D01*
X56351Y37402D01*
X56197Y38175D01*
X55759Y38830D01*
X55104Y39268D01*
X54331Y39421D01*
X53558Y39268D01*
X52902Y38830D01*
X52465Y38175D01*
X52311Y37402D01*
X52465Y36629D01*
X52531Y36529D01*
Y34776D01*
X36464D01*
Y25696D01*
X62551D01*
Y23425D01*
X62551Y23425D01*
X62689Y22729D01*
X63084Y22139D01*
X76887Y8336D01*
X76695Y7874D01*
X18466D01*
X18209Y8303D01*
X18584Y9005D01*
X19002Y10381D01*
X19142Y11811D01*
X19002Y13241D01*
X18584Y14617D01*
X17907Y15884D01*
X16995Y16995D01*
X15884Y17907D01*
X14617Y18584D01*
X13241Y19002D01*
X11811Y19142D01*
X10381Y19002D01*
X9005Y18584D01*
X8303Y18209D01*
X7874Y18466D01*
Y99644D01*
X8303Y99901D01*
X9005Y99526D01*
X10381Y99109D01*
X11811Y98968D01*
X13241Y99109D01*
X14617Y99526D01*
X15884Y100203D01*
X16995Y101115D01*
X17907Y102226D01*
X18584Y103494D01*
X19002Y104869D01*
X19142Y106299D01*
X19002Y107729D01*
X18584Y109105D01*
X18209Y109807D01*
X18466Y110236D01*
X60136D01*
X60328Y109774D01*
D02*
G37*
G36*
X198327Y109807D02*
X197951Y109105D01*
X197534Y107729D01*
X197393Y106299D01*
X197534Y104869D01*
X197951Y103494D01*
X198629Y102226D01*
X199540Y101115D01*
X200651Y100203D01*
X201919Y99526D01*
X203294Y99109D01*
X204724Y98968D01*
X206155Y99109D01*
X207530Y99526D01*
X208232Y99901D01*
X208661Y99644D01*
Y18466D01*
X208232Y18209D01*
X207530Y18584D01*
X206155Y19002D01*
X204724Y19142D01*
X203294Y19002D01*
X201919Y18584D01*
X200651Y17907D01*
X199540Y16995D01*
X198629Y15884D01*
X197951Y14617D01*
X197534Y13241D01*
X197393Y11811D01*
X197534Y10381D01*
X197951Y9005D01*
X198327Y8303D01*
X198070Y7874D01*
X160203D01*
X159895Y8374D01*
X160006Y9213D01*
X159877Y10192D01*
X159499Y11105D01*
X158897Y11889D01*
X158113Y12491D01*
X157200Y12869D01*
X156299Y12987D01*
Y15438D01*
X157200Y15556D01*
X158113Y15935D01*
X158897Y16536D01*
X159499Y17320D01*
X159877Y18233D01*
X160006Y19213D01*
X159877Y20192D01*
X159499Y21105D01*
X158897Y21889D01*
X158113Y22491D01*
X157200Y22869D01*
X156299Y22987D01*
Y25236D01*
X157252Y25362D01*
X158214Y25760D01*
X159040Y26393D01*
X159673Y27219D01*
X160072Y28181D01*
X160076Y28213D01*
X156220D01*
Y30213D01*
X160076D01*
X160072Y30244D01*
X159673Y31206D01*
X159040Y32032D01*
X158214Y32665D01*
X157252Y33064D01*
X156299Y33189D01*
Y55829D01*
X156761Y56020D01*
X162513Y50269D01*
X163103Y49874D01*
X163799Y49736D01*
X163799Y49736D01*
X165692D01*
X165762Y49689D01*
X166535Y49535D01*
X171653D01*
X172426Y49689D01*
X173082Y50127D01*
X173520Y50782D01*
X173673Y51555D01*
X173520Y52328D01*
X173082Y52983D01*
X172426Y53421D01*
X171653Y53575D01*
X166535D01*
X165762Y53421D01*
X165692Y53374D01*
X164553D01*
X156299Y61628D01*
Y85438D01*
X157200Y85556D01*
X158113Y85935D01*
X158845Y86496D01*
X159313Y86395D01*
X159345Y86384D01*
Y61277D01*
X159345Y61277D01*
X159483Y60581D01*
X159878Y59991D01*
X164068Y55800D01*
X164068Y55800D01*
X164658Y55406D01*
X164961Y55346D01*
X165107Y55127D01*
X165762Y54689D01*
X166535Y54535D01*
X171653D01*
X172426Y54689D01*
X172497Y54736D01*
X179660D01*
X189288Y45108D01*
X189257Y45035D01*
X189128Y44055D01*
X189257Y43075D01*
X189635Y42162D01*
X190237Y41379D01*
X191021Y40777D01*
X191934Y40399D01*
X192913Y40270D01*
X193893Y40399D01*
X194806Y40777D01*
X195590Y41379D01*
X196191Y42162D01*
X196570Y43075D01*
X196698Y44055D01*
X196570Y45035D01*
X196191Y45948D01*
X195590Y46732D01*
X194806Y47333D01*
X193893Y47711D01*
X192913Y47840D01*
X191934Y47711D01*
X191860Y47681D01*
X181700Y57841D01*
X181110Y58236D01*
X180413Y58374D01*
X180413Y58374D01*
X172497D01*
X172426Y58421D01*
X171653Y58575D01*
X166881D01*
X166594Y58767D01*
X166197Y58846D01*
X166009Y59130D01*
X166278Y59586D01*
X166535Y59535D01*
X171653D01*
X172426Y59689D01*
X172497Y59736D01*
X185723D01*
X189599Y55860D01*
X189257Y55035D01*
X189128Y54055D01*
X189257Y53075D01*
X189635Y52162D01*
X190237Y51379D01*
X191021Y50777D01*
X191934Y50399D01*
X192913Y50270D01*
X193893Y50399D01*
X194806Y50777D01*
X195590Y51379D01*
X196191Y52162D01*
X196570Y53075D01*
X196698Y54055D01*
X196570Y55035D01*
X196191Y55948D01*
X195590Y56732D01*
X194806Y57333D01*
X193893Y57711D01*
X192913Y57840D01*
X192781Y57823D01*
X187763Y62841D01*
X187173Y63236D01*
X186476Y63374D01*
X186476Y63374D01*
X172497D01*
X172426Y63421D01*
X171653Y63575D01*
X166535D01*
X165762Y63421D01*
X165107Y62983D01*
X164669Y62328D01*
X164515Y61555D01*
X164602Y61118D01*
X164142Y60872D01*
X162983Y62030D01*
Y94269D01*
X162845Y94965D01*
X162450Y95555D01*
X162450Y95555D01*
X159846Y98160D01*
X159877Y98233D01*
X160006Y99213D01*
X159877Y100192D01*
X159499Y101105D01*
X158897Y101889D01*
X158113Y102491D01*
X157200Y102869D01*
X156299Y102987D01*
Y105438D01*
X157200Y105556D01*
X157273Y105587D01*
X169659Y93202D01*
X169659Y93202D01*
X170249Y92808D01*
X170945Y92669D01*
X170945Y92669D01*
X181727D01*
X189288Y85108D01*
X189257Y85035D01*
X189128Y84055D01*
X189257Y83075D01*
X189635Y82162D01*
X190237Y81379D01*
X191021Y80777D01*
X191934Y80399D01*
X192913Y80270D01*
X193893Y80399D01*
X194806Y80777D01*
X195590Y81379D01*
X196191Y82162D01*
X196570Y83075D01*
X196698Y84055D01*
X196570Y85035D01*
X196191Y85948D01*
X195590Y86732D01*
X194806Y87333D01*
X193893Y87711D01*
X192913Y87840D01*
X191934Y87711D01*
X191860Y87681D01*
X183767Y95775D01*
X183177Y96169D01*
X182480Y96307D01*
X182480Y96307D01*
X171698D01*
X159846Y108160D01*
X159877Y108233D01*
X160006Y109213D01*
X159937Y109736D01*
X160375Y110236D01*
X198070D01*
X198327Y109807D01*
D02*
G37*
%LPC*%
G36*
X78370Y92614D02*
X76264D01*
Y92414D01*
X72477D01*
Y92614D01*
X70370D01*
Y87874D01*
Y83134D01*
X72477D01*
Y83334D01*
X76264D01*
Y83134D01*
X78370D01*
Y87874D01*
Y92614D01*
D02*
G37*
G36*
X82477D02*
X80370D01*
Y87874D01*
Y83134D01*
X82477D01*
Y83334D01*
X117277D01*
Y92414D01*
X82477D01*
Y92614D01*
D02*
G37*
G36*
X68370D02*
X65370D01*
Y87874D01*
Y83134D01*
X68370D01*
Y87874D01*
Y92614D01*
D02*
G37*
G36*
X138976Y53595D02*
X138203Y53441D01*
X138118Y53384D01*
X135081D01*
X135025Y53421D01*
X134252Y53575D01*
X129134D01*
X128361Y53421D01*
X127706Y52983D01*
X127268Y52328D01*
X127114Y51555D01*
X127268Y50782D01*
X127706Y50127D01*
X128361Y49689D01*
X129134Y49535D01*
X134252D01*
X135025Y49689D01*
X135110Y49746D01*
X138148D01*
X138203Y49709D01*
X138976Y49555D01*
X139749Y49709D01*
X140405Y50147D01*
X140842Y50802D01*
X140996Y51575D01*
X140842Y52348D01*
X140405Y53003D01*
X139749Y53441D01*
X138976Y53595D01*
D02*
G37*
G36*
X134252Y48575D02*
X129134D01*
X128361Y48421D01*
X127706Y47983D01*
X127268Y47328D01*
X127114Y46555D01*
X127268Y45782D01*
X127706Y45127D01*
X128361Y44689D01*
X129134Y44535D01*
X134252D01*
X135025Y44689D01*
X135680Y45127D01*
X136118Y45782D01*
X136272Y46555D01*
X136118Y47328D01*
X135680Y47983D01*
X135025Y48421D01*
X134252Y48575D01*
D02*
G37*
G36*
Y43779D02*
X132693D01*
Y42555D01*
X136207D01*
X135825Y43128D01*
X135103Y43610D01*
X134252Y43779D01*
D02*
G37*
G36*
X130693D02*
X129134D01*
X128283Y43610D01*
X127561Y43128D01*
X127179Y42555D01*
X130693D01*
Y43779D01*
D02*
G37*
G36*
X116929Y79556D02*
X76772D01*
X76459Y79494D01*
X76195Y79317D01*
X76018Y79052D01*
X75956Y78740D01*
Y41732D01*
X76018Y41420D01*
X76195Y41155D01*
X76459Y40979D01*
X76772Y40917D01*
X116929D01*
X117241Y40979D01*
X117506Y41155D01*
X117683Y41420D01*
X117745Y41732D01*
Y78740D01*
X117683Y79052D01*
X117506Y79317D01*
X117241Y79494D01*
X116929Y79556D01*
D02*
G37*
G36*
X136207Y40555D02*
X132693D01*
Y39331D01*
X134252D01*
X135103Y39501D01*
X135825Y39983D01*
X136207Y40555D01*
D02*
G37*
G36*
X130693D02*
X127179D01*
X127561Y39983D01*
X128283Y39501D01*
X129134Y39331D01*
X130693D01*
Y40555D01*
D02*
G37*
G36*
X168898Y83130D02*
X167971Y82946D01*
X167185Y82421D01*
X166661Y81635D01*
X166476Y80709D01*
X166661Y79782D01*
X166976Y79310D01*
Y78575D01*
X166535D01*
X165762Y78421D01*
X165107Y77983D01*
X164669Y77328D01*
X164515Y76555D01*
X164669Y75782D01*
X165107Y75127D01*
X165762Y74689D01*
X166535Y74535D01*
X171653D01*
X172426Y74689D01*
X173082Y75127D01*
X173520Y75782D01*
X173673Y76555D01*
X173520Y77328D01*
X173082Y77983D01*
X172426Y78421D01*
X171653Y78575D01*
X171016D01*
Y79359D01*
X171233Y79684D01*
X171417Y80610D01*
X171233Y81537D01*
X170708Y82322D01*
X170610Y82421D01*
X169824Y82946D01*
X168898Y83130D01*
D02*
G37*
G36*
X171653Y73779D02*
X170095D01*
Y72555D01*
X173609D01*
X173226Y73128D01*
X172504Y73610D01*
X171653Y73779D01*
D02*
G37*
G36*
X168095D02*
X166535D01*
X165684Y73610D01*
X164963Y73128D01*
X164580Y72555D01*
X168095D01*
Y73779D01*
D02*
G37*
G36*
X192913Y77840D02*
X191934Y77711D01*
X191021Y77333D01*
X190237Y76732D01*
X189635Y75948D01*
X189515Y75658D01*
X188012D01*
X187316Y75519D01*
X186725Y75125D01*
X186725Y75125D01*
X179975Y68374D01*
X172497D01*
X172426Y68421D01*
X171653Y68575D01*
X166535D01*
X165762Y68421D01*
X165107Y67983D01*
X164669Y67328D01*
X164515Y66555D01*
X164669Y65782D01*
X165107Y65127D01*
X165762Y64689D01*
X166535Y64535D01*
X171653D01*
X172426Y64689D01*
X172497Y64736D01*
X180728D01*
X180728Y64736D01*
X181424Y64874D01*
X182015Y65269D01*
X188765Y72019D01*
X189745D01*
X190237Y71379D01*
X191021Y70777D01*
X191934Y70399D01*
X192913Y70270D01*
X193893Y70399D01*
X194806Y70777D01*
X195590Y71379D01*
X196191Y72162D01*
X196570Y73075D01*
X196698Y74055D01*
X196570Y75035D01*
X196191Y75948D01*
X195590Y76732D01*
X194806Y77333D01*
X193893Y77711D01*
X192913Y77840D01*
D02*
G37*
G36*
X173609Y70555D02*
X170095D01*
Y69331D01*
X171653D01*
X172504Y69501D01*
X173226Y69983D01*
X173609Y70555D01*
D02*
G37*
G36*
X168095D02*
X164580D01*
X164963Y69983D01*
X165684Y69501D01*
X166535Y69331D01*
X168095D01*
Y70555D01*
D02*
G37*
G36*
X193913Y67910D02*
Y65055D01*
X196769D01*
X196764Y65087D01*
X196366Y66049D01*
X195732Y66874D01*
X194907Y67508D01*
X193945Y67906D01*
X193913Y67910D01*
D02*
G37*
G36*
X191913D02*
X191882Y67906D01*
X190920Y67508D01*
X190094Y66874D01*
X189461Y66049D01*
X189062Y65087D01*
X189058Y65055D01*
X191913D01*
Y67910D01*
D02*
G37*
G36*
X196769Y63055D02*
X193913D01*
Y60200D01*
X193945Y60204D01*
X194907Y60602D01*
X195732Y61236D01*
X196366Y62062D01*
X196764Y63023D01*
X196769Y63055D01*
D02*
G37*
G36*
X191913D02*
X189058D01*
X189062Y63023D01*
X189461Y62062D01*
X190094Y61236D01*
X190920Y60602D01*
X191882Y60204D01*
X191913Y60200D01*
Y63055D01*
D02*
G37*
G36*
X171653Y48779D02*
X170095D01*
Y47555D01*
X173609D01*
X173226Y48128D01*
X172504Y48610D01*
X171653Y48779D01*
D02*
G37*
G36*
X168095D02*
X166535D01*
X165684Y48610D01*
X164963Y48128D01*
X164580Y47555D01*
X168095D01*
Y48779D01*
D02*
G37*
G36*
X173609Y45555D02*
X170095D01*
Y44331D01*
X171653D01*
X172504Y44501D01*
X173226Y44983D01*
X173609Y45555D01*
D02*
G37*
G36*
X168095D02*
X164580D01*
X164963Y44983D01*
X165684Y44501D01*
X166535Y44331D01*
X168095D01*
Y45555D01*
D02*
G37*
G36*
X171653Y43779D02*
X170095D01*
Y42555D01*
X173609D01*
X173226Y43128D01*
X172504Y43610D01*
X171653Y43779D01*
D02*
G37*
G36*
X168095D02*
X166535D01*
X165684Y43610D01*
X164963Y43128D01*
X164580Y42555D01*
X168095D01*
Y43779D01*
D02*
G37*
G36*
X173609Y40555D02*
X170095D01*
Y39331D01*
X171653D01*
X172504Y39501D01*
X173226Y39983D01*
X173609Y40555D01*
D02*
G37*
G36*
X168095D02*
X164580D01*
X164963Y39983D01*
X165684Y39501D01*
X166535Y39331D01*
X168095D01*
Y40555D01*
D02*
G37*
G36*
X192913Y37840D02*
X191934Y37711D01*
X191021Y37333D01*
X190237Y36732D01*
X189635Y35948D01*
X189257Y35035D01*
X189128Y34055D01*
X189257Y33075D01*
X189635Y32162D01*
X190237Y31379D01*
X191021Y30777D01*
X191934Y30399D01*
X192913Y30270D01*
X193893Y30399D01*
X194806Y30777D01*
X195590Y31379D01*
X196191Y32162D01*
X196570Y33075D01*
X196698Y34055D01*
X196570Y35035D01*
X196191Y35948D01*
X195590Y36732D01*
X194806Y37333D01*
X193893Y37711D01*
X192913Y37840D01*
D02*
G37*
%LPD*%
D12*
X168996Y76653D02*
Y80610D01*
D18*
X39370Y30236D02*
D03*
X84370D02*
D03*
X89370D02*
D03*
X94370D02*
D03*
X99370D02*
D03*
X104370D02*
D03*
X109370D02*
D03*
X114370D02*
D03*
Y87874D02*
D03*
X109370D02*
D03*
X104370D02*
D03*
X44370Y30236D02*
D03*
X99370Y87874D02*
D03*
X94370D02*
D03*
X89370D02*
D03*
X84370D02*
D03*
X79370D02*
D03*
X74370D02*
D03*
X69370D02*
D03*
X64370D02*
D03*
X59370D02*
D03*
X54370D02*
D03*
X49370Y30236D02*
D03*
Y87874D02*
D03*
X44370D02*
D03*
X39370D02*
D03*
X54370Y30236D02*
D03*
X59370D02*
D03*
X64370D02*
D03*
X69370D02*
D03*
X74370D02*
D03*
X79370D02*
D03*
D19*
X131693Y76555D02*
D03*
Y71555D02*
D03*
Y66555D02*
D03*
Y61555D02*
D03*
Y56555D02*
D03*
Y51555D02*
D03*
Y46555D02*
D03*
Y41555D02*
D03*
X169095Y76555D02*
D03*
Y71555D02*
D03*
Y66555D02*
D03*
Y61555D02*
D03*
Y56555D02*
D03*
Y51555D02*
D03*
Y46555D02*
D03*
Y41555D02*
D03*
D24*
X188012Y73839D02*
X192913D01*
X64492Y37326D02*
X64567Y37402D01*
X64492Y30358D02*
Y37326D01*
X64370Y30236D02*
X64492Y30358D01*
X138967Y51565D02*
X138976Y51575D01*
X131703Y51565D02*
X138967D01*
X131693Y51555D02*
X131703Y51565D01*
X182480Y94488D02*
X192913Y84055D01*
X169095Y61555D02*
X186476D01*
X192913Y55118D01*
X180413Y56555D02*
X192913Y44055D01*
X123622Y76378D02*
X131693D01*
X124504Y66630D02*
X134327D01*
X123622Y65748D02*
X124504Y66630D01*
X134327D02*
X137217Y69520D01*
X170945Y94488D02*
X182480D01*
X156220Y109213D02*
X170945Y94488D01*
X165354Y57087D02*
X165897D01*
X166429Y56555D01*
X169095D01*
X161164Y61277D02*
X165354Y57087D01*
X161164Y61277D02*
Y94269D01*
X156220Y99213D02*
X161164Y94269D01*
X163799Y51555D02*
X169095D01*
X151484Y63871D02*
X163799Y51555D01*
X151484Y63871D02*
Y103950D01*
X146221Y109213D02*
X151484Y103950D01*
X137217Y69520D02*
Y77783D01*
X137008Y77993D02*
X137217Y77783D01*
X137008Y77993D02*
Y90000D01*
X146221Y99213D01*
X45479Y92353D02*
X62390Y109264D01*
X62441Y109213D01*
X146221D01*
X169095Y56555D02*
X180413D01*
X180728Y66555D02*
X188012Y73839D01*
X169095Y66555D02*
X180728D01*
X103543Y19291D02*
X146221D01*
X131693Y61555D02*
X140960D01*
X150958Y51558D01*
Y23950D02*
Y51558D01*
X146221Y19213D02*
X150958Y23950D01*
X48819Y79921D02*
Y87874D01*
X139695Y56624D02*
X139764Y56693D01*
X45479Y88472D02*
Y92353D01*
X44882Y87874D02*
X45479Y88472D01*
X131762Y56624D02*
X139695D01*
X131693Y56555D02*
X131762Y56624D01*
X85551Y9055D02*
X146221Y9055D01*
X99370Y23465D02*
Y30236D01*
Y23465D02*
X103543Y19291D01*
X78740Y9055D02*
X85551D01*
X64370Y23425D02*
X78740Y9055D01*
X64370Y23425D02*
Y30236D01*
X54331Y37402D02*
X54350Y37382D01*
Y30256D02*
Y37382D01*
Y30256D02*
X54370Y30236D01*
D25*
X168898Y80709D02*
X168996Y80610D01*
D26*
X204724Y11811D02*
D03*
Y106299D02*
D03*
X11811D02*
D03*
X156220Y89213D02*
D03*
X146221D02*
D03*
X192913Y84055D02*
D03*
Y74055D02*
D03*
Y64055D02*
D03*
Y54055D02*
D03*
Y44055D02*
D03*
Y34055D02*
D03*
X156220Y29213D02*
D03*
X146221D02*
D03*
X156220Y109213D02*
D03*
X146221D02*
D03*
X156220Y9213D02*
D03*
X146221D02*
D03*
X156220Y19213D02*
D03*
X146221D02*
D03*
X156220Y99213D02*
D03*
X146221D02*
D03*
X11811Y11811D02*
D03*
D27*
X168898Y80709D02*
D03*
X123622Y76378D02*
D03*
Y65748D02*
D03*
X138976Y51575D02*
D03*
X139764Y56693D02*
D03*
X48819Y79921D02*
D03*
X54331Y37402D02*
D03*
X64567D02*
D03*
M02*
