%TF.GenerationSoftware,Altium Limited,Altium Designer,21.2.1 (34)*%
G04 Layer_Color=16711935*
%FSLAX26Y26*%
%MOIN*%
%TF.SameCoordinates,A0A043E5-24E2-464B-A4FE-AC519CE3A301*%
%TF.FilePolarity,Positive*%
%TF.FileFunction,Other,Mechanical_13*%
%TF.Part,Single*%
G01*
G75*
%TA.AperFunction,NonConductor*%
%ADD17C,0.003937*%
D17*
X1155512Y113189D02*
Y162402D01*
X1265748D01*
Y113189D02*
Y162402D01*
X1155512Y113189D02*
X1265748D01*
X1238369Y93504D02*
Y142716D01*
Y93504D02*
X1344668D01*
Y142716D01*
X1238369D02*
X1344668D01*
X1260629Y774409D02*
X1692912D01*
X1260629Y175984D02*
Y774409D01*
X1692912Y175197D02*
Y774409D01*
X1260629Y175197D02*
X1692912D01*
X1260629D02*
Y175984D01*
X2165354Y944882D02*
X2165354Y944882D01*
X-0Y944882D02*
X0Y944882D01*
X-446194Y39370D02*
X-433071Y-0D01*
X-419948Y39370D01*
X-433071Y944882D02*
X-419948Y905512D01*
X-446194D02*
X-433071Y944882D01*
Y-0D02*
Y316738D01*
Y612396D02*
Y944882D01*
X-437008Y-0D02*
X190945D01*
X-437008Y944882D02*
X190945D01*
X0Y-314961D02*
X39370Y-301837D01*
X0Y-314961D02*
X39370Y-328084D01*
X1417323D02*
X1456693Y-314961D01*
X1417323Y-301837D02*
X1456693Y-314961D01*
X0D02*
X572644D01*
X868301D02*
X1456693D01*
X0Y-318898D02*
Y190945D01*
X1456693Y-318898D02*
Y190945D01*
X-308399Y811811D02*
X-295276Y772441D01*
X-282152Y811811D01*
X-295276Y944882D02*
X-282152Y905512D01*
X-308399D02*
X-295276Y944882D01*
Y772441D02*
Y858661D01*
Y944882D01*
X-299213Y772441D02*
X7591D01*
X-299213Y944882D02*
X190945D01*
X-295276Y172441D02*
X-282152Y133071D01*
X-308399D02*
X-295276Y172441D01*
X-308399Y39370D02*
X-295276Y-0D01*
X-282152Y39370D01*
X-295276Y-0D02*
Y172441D01*
X-299213D02*
X7591D01*
X-299213Y-0D02*
X190945D01*
X1929134Y0D02*
X1942257Y-39370D01*
X1916011D02*
X1929134Y0D01*
X1916011Y261811D02*
X1929134Y222441D01*
X1942257Y261811D01*
X1929134Y-59055D02*
Y0D01*
Y222441D02*
Y281496D01*
X1336677Y222441D02*
X1933071D01*
X1265748Y0D02*
X1933071D01*
X1916011Y984252D02*
X1929134Y944882D01*
X1942257Y984252D01*
X1929134Y722441D02*
X1942257Y683071D01*
X1916011D02*
X1929134Y722441D01*
Y944882D02*
Y1003937D01*
Y663386D02*
Y722441D01*
X1336677D02*
X1933071D01*
X1265748Y944882D02*
X1933071D01*
X1456693Y1259842D02*
X1496063Y1272966D01*
X1456693Y1259842D02*
X1496063Y1246719D01*
X1259842D02*
X1299213Y1259842D01*
X1259842Y1272966D02*
X1299213Y1259842D01*
X1456693D02*
X1515748D01*
X1240158D02*
X1299213D01*
Y759905D02*
Y1263780D01*
X1456693Y753937D02*
Y1263780D01*
X-389147Y364599D02*
Y324612D01*
X-429134Y364599D01*
X-439131D01*
X-449127Y354602D01*
Y334609D01*
X-439131Y324612D01*
X-389147Y414583D02*
X-449127D01*
X-419137Y384593D01*
Y424580D01*
X-379150Y454570D02*
X-389147Y464567D01*
X-399144D01*
Y454570D01*
X-389147D01*
Y464567D01*
X-379150Y454570D01*
X-369153Y444573D01*
X-439131Y504554D02*
X-449127Y514551D01*
Y534544D01*
X-439131Y544541D01*
X-399144D01*
X-389147Y534544D01*
Y514551D01*
X-399144Y504554D01*
X-439131D01*
Y564534D02*
X-449127Y574531D01*
Y594525D01*
X-439131Y604522D01*
X-399144D01*
X-389147Y594525D01*
Y574531D01*
X-399144Y564534D01*
X-439131D01*
X580518Y-308901D02*
X590514Y-298904D01*
X610508D01*
X620505Y-308901D01*
Y-318897D01*
X610508Y-328894D01*
X600511D01*
X610508D01*
X620505Y-338891D01*
Y-348888D01*
X610508Y-358885D01*
X590514D01*
X580518Y-348888D01*
X640498Y-298904D02*
X680485D01*
Y-308901D01*
X640498Y-348888D01*
Y-358885D01*
X710476Y-368881D02*
X720472Y-358885D01*
Y-348888D01*
X710476D01*
Y-358885D01*
X720472D01*
X710476Y-368881D01*
X700479Y-378878D01*
X760460Y-308901D02*
X770456Y-298904D01*
X790450D01*
X800447Y-308901D01*
Y-348888D01*
X790450Y-358885D01*
X770456D01*
X760460Y-348888D01*
Y-308901D01*
X820440D02*
X830437Y-298904D01*
X850430D01*
X860427Y-308901D01*
Y-348888D01*
X850430Y-358885D01*
X830437D01*
X820440Y-348888D01*
Y-308901D01*
X-251352Y570691D02*
X-311332D01*
X-281342Y540701D01*
Y580688D01*
X-241355Y610678D02*
X-251352Y620675D01*
X-261348D01*
Y610678D01*
X-251352D01*
Y620675D01*
X-241355Y610678D01*
X-231358Y600682D01*
X-301335Y660662D02*
X-311332Y670659D01*
Y690653D01*
X-301335Y700649D01*
X-291339D01*
X-281342Y690653D01*
Y680656D01*
Y690653D01*
X-271345Y700649D01*
X-261348D01*
X-251352Y690653D01*
Y670659D01*
X-261348Y660662D01*
X-301335Y720643D02*
X-311332Y730640D01*
Y750633D01*
X-301335Y760630D01*
X-291339D01*
X-281342Y750633D01*
X-271345Y760630D01*
X-261348D01*
X-251352Y750633D01*
Y730640D01*
X-261348Y720643D01*
X-271345D01*
X-281342Y730640D01*
X-291339Y720643D01*
X-301335D01*
X-281342Y730640D02*
Y750633D01*
X-251352Y206368D02*
X-311332D01*
X-281342Y176378D01*
Y216365D01*
X-241355Y246355D02*
X-251352Y256352D01*
X-261348D01*
Y246355D01*
X-251352D01*
Y256352D01*
X-241355Y246355D01*
X-231358Y236359D01*
X-301335Y296339D02*
X-311332Y306336D01*
Y326329D01*
X-301335Y336326D01*
X-291339D01*
X-281342Y326329D01*
Y316333D01*
Y326329D01*
X-271345Y336326D01*
X-261348D01*
X-251352Y326329D01*
Y306336D01*
X-261348Y296339D01*
X-301335Y356320D02*
X-311332Y366317D01*
Y386310D01*
X-301335Y396307D01*
X-291339D01*
X-281342Y386310D01*
X-271345Y396307D01*
X-261348D01*
X-251352Y386310D01*
Y366317D01*
X-261348Y356320D01*
X-271345D01*
X-281342Y366317D01*
X-291339Y356320D01*
X-301335D01*
X-281342Y366317D02*
Y386310D01*
X2044850Y33369D02*
Y-6618D01*
X2074840D01*
X2064843Y13376D01*
Y23372D01*
X2074840Y33369D01*
X2094833D01*
X2104830Y23372D01*
Y3379D01*
X2094833Y-6618D01*
X2114827Y63359D02*
X2104830Y73356D01*
X2094833D01*
Y63359D01*
X2104830D01*
Y73356D01*
X2114827Y63359D01*
X2124824Y53363D01*
X2044850Y153330D02*
X2054846Y133337D01*
X2074840Y113343D01*
X2094833D01*
X2104830Y123340D01*
Y143333D01*
X2094833Y153330D01*
X2084837D01*
X2074840Y143333D01*
Y113343D01*
X2044850Y213311D02*
Y173324D01*
X2074840D01*
X2064843Y193317D01*
Y203314D01*
X2074840Y213311D01*
X2094833D01*
X2104830Y203314D01*
Y183321D01*
X2094833Y173324D01*
X2044850Y755810D02*
Y715823D01*
X2074840D01*
X2064843Y735817D01*
Y745813D01*
X2074840Y755810D01*
X2094833D01*
X2104830Y745813D01*
Y725820D01*
X2094833Y715823D01*
X2114827Y785800D02*
X2104830Y795797D01*
X2094833D01*
Y785800D01*
X2104830D01*
Y795797D01*
X2114827Y785800D01*
X2124824Y775804D01*
X2044850Y875771D02*
X2054846Y855778D01*
X2074840Y835784D01*
X2094833D01*
X2104830Y845781D01*
Y865774D01*
X2094833Y875771D01*
X2084837D01*
X2074840Y865774D01*
Y835784D01*
X2044850Y935752D02*
Y895765D01*
X2074840D01*
X2064843Y915758D01*
Y925755D01*
X2074840Y935752D01*
X2094833D01*
X2104830Y925755D01*
Y905762D01*
X2094833Y895765D01*
X1290105Y1347691D02*
Y1407671D01*
X1260114Y1377681D01*
X1300101D01*
X1330092Y1337694D02*
X1340088Y1347691D01*
Y1357687D01*
X1330092D01*
Y1347691D01*
X1340088D01*
X1330092Y1337694D01*
X1320095Y1327697D01*
X1380075Y1397674D02*
X1390072Y1407671D01*
X1410066D01*
X1420063Y1397674D01*
Y1357687D01*
X1410066Y1347691D01*
X1390072D01*
X1380075Y1357687D01*
Y1397674D01*
X1440056D02*
X1450053Y1407671D01*
X1470046D01*
X1480043Y1397674D01*
Y1357687D01*
X1470046Y1347691D01*
X1450053D01*
X1440056Y1357687D01*
Y1397674D01*
%TF.MD5,24e8d4b4bd68ee951af0de09f6e1d44d*%
M02*
