M48
;Layer_Color=9474304
;FILE_FORMAT=2:4
INCH,LZ
;TYPE=PLATED
T1F00S00C0.0118
T2F00S00C0.0354
T3F00S00C0.1299
%
T01
X005433Y00374
X006457
X013898Y005157
X013976Y005669
X012362Y006575
Y007638
X01689Y008071
X004882Y007992
T02
X014622Y000921
X015622
Y001921
Y002921
X014622
Y001921
X019291Y003406
Y004406
Y005406
Y006406
Y007406
Y008406
X015622Y008921
X014622
Y009921
Y010921
X015622
Y009921
T03
X001181Y001181
X020472
Y01063
X001181
M30
