G04*
G04 #@! TF.GenerationSoftware,Altium Limited,Altium Designer,19.1.8 (144)*
G04*
G04 Layer_Color=65535*
%FSLAX25Y25*%
%MOIN*%
G70*
G01*
G75*
%ADD10C,0.00600*%
%ADD11C,0.00984*%
%ADD12C,0.02362*%
%ADD13C,0.00394*%
%ADD14C,0.00787*%
%ADD15C,0.00500*%
%ADD16C,0.00315*%
%ADD17C,0.00591*%
D10*
X-3930Y77955D02*
G03*
X370Y82255I0J4300D01*
G01*
Y35855D02*
G03*
X-3930Y40155I-4300J0D01*
G01*
X117170Y89055D02*
X118370D01*
Y29055D02*
Y89055D01*
X117170Y29055D02*
X118370D01*
X370D02*
X36570D01*
X370D02*
Y35855D01*
Y82255D02*
Y89055D01*
X-3930Y40155D02*
Y77955D01*
X370Y89055D02*
X36570D01*
D11*
X132382Y80709D02*
G03*
X132382Y80709I-492J0D01*
G01*
D12*
X142126Y75787D02*
G03*
X142126Y75787I-1181J0D01*
G01*
D13*
X151221Y86713D02*
Y91713D01*
X188976Y29331D02*
X198031D01*
X188976D02*
Y89173D01*
X198031D01*
Y29331D02*
Y89173D01*
X151221Y26713D02*
Y31713D01*
Y106713D02*
Y111713D01*
Y6713D02*
Y11713D01*
Y16713D02*
Y21713D01*
Y96713D02*
Y101713D01*
X161811Y89435D02*
X162139Y89763D01*
X162795D01*
X163123Y89435D01*
Y89107D01*
X162795Y88779D01*
X162467D01*
X162795D01*
X163123Y88451D01*
Y88123D01*
X162795Y87795D01*
X162139D01*
X161811Y88123D01*
X163779Y89763D02*
Y88451D01*
X164435Y87795D01*
X165091Y88451D01*
Y89763D01*
X165747Y89435D02*
X166075Y89763D01*
X166731D01*
X167059Y89435D01*
Y89107D01*
X166731Y88779D01*
X166403D01*
X166731D01*
X167059Y88451D01*
Y88123D01*
X166731Y87795D01*
X166075D01*
X165747Y88123D01*
X167715Y87467D02*
X169027D01*
X169683Y89763D02*
X170338D01*
X170010D01*
Y87795D01*
X169683D01*
X170338D01*
X172634Y89435D02*
X172306Y89763D01*
X171650D01*
X171322Y89435D01*
Y89107D01*
X171650Y88779D01*
X172306D01*
X172634Y88451D01*
Y88123D01*
X172306Y87795D01*
X171650D01*
X171322Y88123D01*
X174274Y89763D02*
X173618D01*
X173290Y89435D01*
Y88123D01*
X173618Y87795D01*
X174274D01*
X174602Y88123D01*
Y89435D01*
X174274Y89763D01*
X175258D02*
Y87795D01*
X176570D01*
X161811Y107874D02*
Y109842D01*
X162795D01*
X163123Y109514D01*
Y108858D01*
X162795Y108530D01*
X161811D01*
X162467D02*
X163123Y107874D01*
X165091Y109514D02*
X164763Y109842D01*
X164107D01*
X163779Y109514D01*
Y109186D01*
X164107Y108858D01*
X164763D01*
X165091Y108530D01*
Y108202D01*
X164763Y107874D01*
X164107D01*
X163779Y108202D01*
X165747Y109842D02*
X167059D01*
X166403D01*
Y107874D01*
X167715Y107546D02*
X169027D01*
X169683Y109842D02*
X170338D01*
X170010D01*
Y107874D01*
X169683D01*
X170338D01*
X172634Y109514D02*
X172306Y109842D01*
X171650D01*
X171322Y109514D01*
Y109186D01*
X171650Y108858D01*
X172306D01*
X172634Y108530D01*
Y108202D01*
X172306Y107874D01*
X171650D01*
X171322Y108202D01*
X174274Y109842D02*
X173618D01*
X173290Y109514D01*
Y108202D01*
X173618Y107874D01*
X174274D01*
X174602Y108202D01*
Y109514D01*
X174274Y109842D01*
X175258D02*
Y107874D01*
X176570D01*
X163123Y99278D02*
X162795Y99606D01*
X162139D01*
X161811Y99278D01*
Y98950D01*
X162139Y98622D01*
X162795D01*
X163123Y98294D01*
Y97966D01*
X162795Y97638D01*
X162139D01*
X161811Y97966D01*
X163779Y99606D02*
Y97638D01*
X164435Y98294D01*
X165091Y97638D01*
Y99606D01*
X165747D02*
Y97638D01*
X166731D01*
X167059Y97966D01*
Y99278D01*
X166731Y99606D01*
X165747D01*
X167715D02*
X168371D01*
X168043D01*
Y97638D01*
X167715D01*
X168371D01*
X170338Y99606D02*
X169683D01*
X169354Y99278D01*
Y97966D01*
X169683Y97638D01*
X170338D01*
X170666Y97966D01*
Y99278D01*
X170338Y99606D01*
X171322Y97310D02*
X172634D01*
X173290Y99606D02*
X173946D01*
X173618D01*
Y97638D01*
X173290D01*
X173946D01*
X176242Y99278D02*
X175914Y99606D01*
X175258D01*
X174930Y99278D01*
Y98950D01*
X175258Y98622D01*
X175914D01*
X176242Y98294D01*
Y97966D01*
X175914Y97638D01*
X175258D01*
X174930Y97966D01*
X177882Y99606D02*
X177226D01*
X176898Y99278D01*
Y97966D01*
X177226Y97638D01*
X177882D01*
X178210Y97966D01*
Y99278D01*
X177882Y99606D01*
X178866D02*
Y97638D01*
X180178D01*
X164304Y9908D02*
X163976Y10236D01*
X163320D01*
X162992Y9908D01*
Y9580D01*
X163320Y9252D01*
X163976D01*
X164304Y8924D01*
Y8596D01*
X163976Y8268D01*
X163320D01*
X162992Y8596D01*
X164960Y10236D02*
Y8268D01*
X165616Y8924D01*
X166272Y8268D01*
Y10236D01*
X167912D02*
X167256D01*
X166928Y9908D01*
Y8596D01*
X167256Y8268D01*
X167912D01*
X168240Y8596D01*
Y9908D01*
X167912Y10236D01*
X168896Y7940D02*
X170208D01*
X170864Y10236D02*
X171519D01*
X171192D01*
Y8268D01*
X170864D01*
X171519D01*
X173815Y9908D02*
X173487Y10236D01*
X172831D01*
X172503Y9908D01*
Y9580D01*
X172831Y9252D01*
X173487D01*
X173815Y8924D01*
Y8596D01*
X173487Y8268D01*
X172831D01*
X172503Y8596D01*
X175455Y10236D02*
X174799D01*
X174471Y9908D01*
Y8596D01*
X174799Y8268D01*
X175455D01*
X175783Y8596D01*
Y9908D01*
X175455Y10236D01*
X176439D02*
Y8268D01*
X177751D01*
X164304Y20078D02*
X163976Y20406D01*
X163320D01*
X162992Y20078D01*
Y19750D01*
X163320Y19422D01*
X163976D01*
X164304Y19094D01*
Y18766D01*
X163976Y18438D01*
X163320D01*
X162992Y18766D01*
X164960Y20406D02*
Y18438D01*
X165616Y19094D01*
X166272Y18438D01*
Y20406D01*
X168240Y20078D02*
X167912Y20406D01*
X167256D01*
X166928Y20078D01*
Y18766D01*
X167256Y18438D01*
X167912D01*
X168240Y18766D01*
X168896Y20406D02*
Y18438D01*
X170208D01*
X170864Y20406D02*
Y18438D01*
Y19094D01*
X172176Y20406D01*
X171192Y19422D01*
X172176Y18438D01*
X172831Y18110D02*
X174143D01*
X174799Y20406D02*
X175455D01*
X175127D01*
Y18438D01*
X174799D01*
X175455D01*
X177751Y20078D02*
X177423Y20406D01*
X176767D01*
X176439Y20078D01*
Y19750D01*
X176767Y19422D01*
X177423D01*
X177751Y19094D01*
Y18766D01*
X177423Y18438D01*
X176767D01*
X176439Y18766D01*
X179391Y20406D02*
X178735D01*
X178407Y20078D01*
Y18766D01*
X178735Y18438D01*
X179391D01*
X179719Y18766D01*
Y20078D01*
X179391Y20406D01*
X180375D02*
Y18438D01*
X181687D01*
X164304Y29593D02*
X163976Y29921D01*
X163320D01*
X162992Y29593D01*
Y28281D01*
X163320Y27953D01*
X163976D01*
X164304Y28281D01*
Y28937D01*
X163648D01*
X164960Y27953D02*
Y29921D01*
X166272Y27953D01*
Y29921D01*
X166928D02*
Y27953D01*
X167912D01*
X168240Y28281D01*
Y29593D01*
X167912Y29921D01*
X166928D01*
X168896Y27625D02*
X170208D01*
X170864Y29921D02*
X171519D01*
X171192D01*
Y27953D01*
X170864D01*
X171519D01*
X173815Y29593D02*
X173487Y29921D01*
X172831D01*
X172503Y29593D01*
Y29265D01*
X172831Y28937D01*
X173487D01*
X173815Y28609D01*
Y28281D01*
X173487Y27953D01*
X172831D01*
X172503Y28281D01*
X175455Y29921D02*
X174799D01*
X174471Y29593D01*
Y28281D01*
X174799Y27953D01*
X175455D01*
X175783Y28281D01*
Y29593D01*
X175455Y29921D01*
X176439D02*
Y27953D01*
X177751D01*
X132414Y99671D02*
X132086Y99999D01*
X131430D01*
X131102Y99671D01*
Y99343D01*
X131430Y99015D01*
X132086D01*
X132414Y98687D01*
Y98360D01*
X132086Y98032D01*
X131430D01*
X131102Y98360D01*
X133070Y99999D02*
Y98032D01*
X133726Y98687D01*
X134382Y98032D01*
Y99999D01*
X135038D02*
Y98032D01*
X136022D01*
X136350Y98360D01*
Y99671D01*
X136022Y99999D01*
X135038D01*
X137006D02*
X137662D01*
X137334D01*
Y98032D01*
X137006D01*
X137662D01*
X139630Y99999D02*
X138974D01*
X138646Y99671D01*
Y98360D01*
X138974Y98032D01*
X139630D01*
X139958Y98360D01*
Y99671D01*
X139630Y99999D01*
X131102Y108268D02*
Y110236D01*
X132086D01*
X132414Y109908D01*
Y109252D01*
X132086Y108924D01*
X131102D01*
X131758D02*
X132414Y108268D01*
X134382Y109908D02*
X134054Y110236D01*
X133398D01*
X133070Y109908D01*
Y109580D01*
X133398Y109252D01*
X134054D01*
X134382Y108924D01*
Y108596D01*
X134054Y108268D01*
X133398D01*
X133070Y108596D01*
X135038Y110236D02*
X136350D01*
X135694D01*
Y108268D01*
X132808Y29593D02*
X132480Y29921D01*
X131824D01*
X131496Y29593D01*
Y28281D01*
X131824Y27953D01*
X132480D01*
X132808Y28281D01*
Y28937D01*
X132152D01*
X133464Y27953D02*
Y29921D01*
X134776Y27953D01*
Y29921D01*
X135432D02*
Y27953D01*
X136416D01*
X136744Y28281D01*
Y29593D01*
X136416Y29921D01*
X135432D01*
X131102Y89435D02*
X131430Y89763D01*
X132086D01*
X132414Y89435D01*
Y89107D01*
X132086Y88779D01*
X131758D01*
X132086D01*
X132414Y88451D01*
Y88123D01*
X132086Y87795D01*
X131430D01*
X131102Y88123D01*
X133070Y89763D02*
Y88451D01*
X133726Y87795D01*
X134382Y88451D01*
Y89763D01*
X135038Y89435D02*
X135366Y89763D01*
X136022D01*
X136350Y89435D01*
Y89107D01*
X136022Y88779D01*
X135694D01*
X136022D01*
X136350Y88451D01*
Y88123D01*
X136022Y87795D01*
X135366D01*
X135038Y88123D01*
X132808Y19750D02*
X132480Y20078D01*
X131824D01*
X131496Y19750D01*
Y19422D01*
X131824Y19094D01*
X132480D01*
X132808Y18766D01*
Y18438D01*
X132480Y18110D01*
X131824D01*
X131496Y18438D01*
X133464Y20078D02*
Y18110D01*
X134120Y18766D01*
X134776Y18110D01*
Y20078D01*
X136744Y19750D02*
X136416Y20078D01*
X135760D01*
X135432Y19750D01*
Y18438D01*
X135760Y18110D01*
X136416D01*
X136744Y18438D01*
X137400Y20078D02*
Y18110D01*
X138712D01*
X139367Y20078D02*
Y18110D01*
Y18766D01*
X140679Y20078D01*
X139696Y19094D01*
X140679Y18110D01*
X132808Y9580D02*
X132480Y9908D01*
X131824D01*
X131496Y9580D01*
Y9252D01*
X131824Y8924D01*
X132480D01*
X132808Y8596D01*
Y8268D01*
X132480Y7940D01*
X131824D01*
X131496Y8268D01*
X133464Y9908D02*
Y7940D01*
X134120Y8596D01*
X134776Y7940D01*
Y9908D01*
X136416D02*
X135760D01*
X135432Y9580D01*
Y8268D01*
X135760Y7940D01*
X136416D01*
X136744Y8268D01*
Y9580D01*
X136416Y9908D01*
X6430Y94160D02*
X6102Y94488D01*
X5446D01*
X5118Y94160D01*
Y93832D01*
X5446Y93504D01*
X6102D01*
X6430Y93176D01*
Y92848D01*
X6102Y92520D01*
X5446D01*
X5118Y92848D01*
X7086Y94488D02*
X8398D01*
X7742D01*
Y92520D01*
X9054Y94488D02*
Y92520D01*
X10366D01*
X11022Y94488D02*
X11678D01*
X11350D01*
Y92520D01*
X11022D01*
X11678D01*
X12662D02*
Y94488D01*
X13973Y92520D01*
Y94488D01*
X14629D02*
Y92520D01*
Y93176D01*
X15941Y94488D01*
X14957Y93504D01*
X15941Y92520D01*
X16597Y93504D02*
X17909D01*
X18565Y94488D02*
Y93176D01*
X19221Y92520D01*
X19877Y93176D01*
Y94488D01*
X20533Y94160D02*
X20861Y94488D01*
X21517D01*
X21845Y94160D01*
Y93832D01*
X21517Y93504D01*
X21189D01*
X21517D01*
X21845Y93176D01*
Y92848D01*
X21517Y92520D01*
X20861D01*
X20533Y92848D01*
X22501Y92520D02*
Y94488D01*
X23157Y93832D01*
X23813Y94488D01*
Y92520D01*
X24469Y94488D02*
X25125D01*
X24797D01*
Y92520D01*
X24469D01*
X25125D01*
X26109D02*
Y94488D01*
X27420Y92520D01*
Y94488D01*
X28076D02*
X28732D01*
X28405D01*
Y92520D01*
X28076D01*
X28732D01*
X1181Y94488D02*
Y92520D01*
X2165D01*
X2493Y92848D01*
Y94160D01*
X2165Y94488D01*
X1181D01*
X3149Y92520D02*
X3805D01*
X3477D01*
Y94488D01*
X3149Y94160D01*
X149213Y83464D02*
Y81496D01*
X150197D01*
X150524Y81824D01*
Y83136D01*
X150197Y83464D01*
X149213D01*
X151181D02*
Y81496D01*
X152164D01*
X152492Y81824D01*
Y83136D01*
X152164Y83464D01*
X151181D01*
X153148Y81496D02*
X153804D01*
X153476D01*
Y83464D01*
X153148Y83136D01*
D14*
X137008Y38386D02*
Y79724D01*
X163779Y38386D02*
Y79724D01*
X137008D02*
X163779D01*
X137008Y38386D02*
X163779D01*
D15*
X121870Y92555D02*
Y94226D01*
Y93391D01*
X116857D01*
X117692Y92555D01*
X116857Y96733D02*
Y100075D01*
X117692D01*
X121035Y96733D01*
X121870D01*
X122370Y18055D02*
Y19726D01*
Y18891D01*
X117357D01*
X118192Y18055D01*
X117357Y25575D02*
X118192Y23904D01*
X119863Y22233D01*
X121535D01*
X122370Y23068D01*
Y24740D01*
X121535Y25575D01*
X120699D01*
X119863Y24740D01*
Y22233D01*
X36870Y22555D02*
Y24226D01*
Y23391D01*
X31857D01*
X32692Y22555D01*
Y92555D02*
X31857Y93391D01*
Y95062D01*
X32692Y95897D01*
X33528D01*
X34363Y95062D01*
Y94226D01*
Y95062D01*
X35199Y95897D01*
X36035D01*
X36870Y95062D01*
Y93391D01*
X36035Y92555D01*
X36870Y100911D02*
Y97569D01*
X33528Y100911D01*
X32692D01*
X31857Y100075D01*
Y98404D01*
X32692Y97569D01*
D16*
X178347Y34449D02*
X178543Y34645D01*
X178937D01*
X179134Y34449D01*
Y34252D01*
X178937Y34055D01*
X178740D01*
X178937D01*
X179134Y33858D01*
Y33661D01*
X178937Y33465D01*
X178543D01*
X178347Y33661D01*
X179527Y34645D02*
Y33858D01*
X179921Y33465D01*
X180314Y33858D01*
Y34645D01*
X180708Y34449D02*
X180905Y34645D01*
X181298D01*
X181495Y34449D01*
Y34252D01*
X181298Y34055D01*
X181102D01*
X181298D01*
X181495Y33858D01*
Y33661D01*
X181298Y33465D01*
X180905D01*
X180708Y33661D01*
X181889Y33268D02*
X182676D01*
X183069Y34645D02*
X183463D01*
X183266D01*
Y33465D01*
X183069D01*
X183463D01*
X184840Y34449D02*
X184644Y34645D01*
X184250D01*
X184053Y34449D01*
Y34252D01*
X184250Y34055D01*
X184644D01*
X184840Y33858D01*
Y33661D01*
X184644Y33465D01*
X184250D01*
X184053Y33661D01*
X185824Y34645D02*
X185431D01*
X185234Y34449D01*
Y33661D01*
X185431Y33465D01*
X185824D01*
X186021Y33661D01*
Y34449D01*
X185824Y34645D01*
X186415D02*
Y33465D01*
X187202D01*
X176969Y44685D02*
X176772Y44881D01*
X176379D01*
X176182Y44685D01*
Y44488D01*
X176379Y44291D01*
X176772D01*
X176969Y44094D01*
Y43898D01*
X176772Y43701D01*
X176379D01*
X176182Y43898D01*
X177363Y44881D02*
Y43701D01*
X177756Y44094D01*
X178150Y43701D01*
Y44881D01*
X178543D02*
Y43701D01*
X179134D01*
X179330Y43898D01*
Y44685D01*
X179134Y44881D01*
X178543D01*
X179724D02*
X180117D01*
X179921D01*
Y43701D01*
X179724D01*
X180117D01*
X181298Y44881D02*
X180905D01*
X180708Y44685D01*
Y43898D01*
X180905Y43701D01*
X181298D01*
X181495Y43898D01*
Y44685D01*
X181298Y44881D01*
X181889Y43504D02*
X182676D01*
X183069Y44881D02*
X183463D01*
X183266D01*
Y43701D01*
X183069D01*
X183463D01*
X184840Y44685D02*
X184644Y44881D01*
X184250D01*
X184053Y44685D01*
Y44488D01*
X184250Y44291D01*
X184644D01*
X184840Y44094D01*
Y43898D01*
X184644Y43701D01*
X184250D01*
X184053Y43898D01*
X185824Y44881D02*
X185431D01*
X185234Y44685D01*
Y43898D01*
X185431Y43701D01*
X185824D01*
X186021Y43898D01*
Y44685D01*
X185824Y44881D01*
X186415D02*
Y43701D01*
X187202D01*
X176772Y54527D02*
X176575Y54724D01*
X176182D01*
X175985Y54527D01*
Y54330D01*
X176182Y54134D01*
X176575D01*
X176772Y53937D01*
Y53740D01*
X176575Y53543D01*
X176182D01*
X175985Y53740D01*
X177166Y54724D02*
Y53543D01*
X177559Y53937D01*
X177953Y53543D01*
Y54724D01*
X179134Y54527D02*
X178937Y54724D01*
X178543D01*
X178347Y54527D01*
Y53740D01*
X178543Y53543D01*
X178937D01*
X179134Y53740D01*
X179527Y54724D02*
Y53543D01*
X180314D01*
X180708Y54724D02*
Y53543D01*
Y53937D01*
X181495Y54724D01*
X180905Y54134D01*
X181495Y53543D01*
X181889Y53347D02*
X182676D01*
X183069Y54724D02*
X183463D01*
X183266D01*
Y53543D01*
X183069D01*
X183463D01*
X184840Y54527D02*
X184644Y54724D01*
X184250D01*
X184053Y54527D01*
Y54330D01*
X184250Y54134D01*
X184644D01*
X184840Y53937D01*
Y53740D01*
X184644Y53543D01*
X184250D01*
X184053Y53740D01*
X185824Y54724D02*
X185431D01*
X185234Y54527D01*
Y53740D01*
X185431Y53543D01*
X185824D01*
X186021Y53740D01*
Y54527D01*
X185824Y54724D01*
X186415D02*
Y53543D01*
X187202D01*
X179134Y64370D02*
X178937Y64566D01*
X178543D01*
X178347Y64370D01*
Y63583D01*
X178543Y63386D01*
X178937D01*
X179134Y63583D01*
Y63976D01*
X178740D01*
X179527Y63386D02*
Y64566D01*
X180314Y63386D01*
Y64566D01*
X180708D02*
Y63386D01*
X181298D01*
X181495Y63583D01*
Y64370D01*
X181298Y64566D01*
X180708D01*
X181889Y63189D02*
X182676D01*
X183069Y64566D02*
X183463D01*
X183266D01*
Y63386D01*
X183069D01*
X183463D01*
X184840Y64370D02*
X184644Y64566D01*
X184250D01*
X184053Y64370D01*
Y64173D01*
X184250Y63976D01*
X184644D01*
X184840Y63779D01*
Y63583D01*
X184644Y63386D01*
X184250D01*
X184053Y63583D01*
X185824Y64566D02*
X185431D01*
X185234Y64370D01*
Y63583D01*
X185431Y63386D01*
X185824D01*
X186021Y63583D01*
Y64370D01*
X185824Y64566D01*
X186415D02*
Y63386D01*
X187202D01*
X178347Y84252D02*
Y85433D01*
X178937D01*
X179134Y85236D01*
Y84842D01*
X178937Y84645D01*
X178347D01*
X178740D02*
X179134Y84252D01*
X180314Y85236D02*
X180117Y85433D01*
X179724D01*
X179527Y85236D01*
Y85039D01*
X179724Y84842D01*
X180117D01*
X180314Y84645D01*
Y84449D01*
X180117Y84252D01*
X179724D01*
X179527Y84449D01*
X180708Y85433D02*
X181495D01*
X181102D01*
Y84252D01*
X181889Y84055D02*
X182676D01*
X183069Y85433D02*
X183463D01*
X183266D01*
Y84252D01*
X183069D01*
X183463D01*
X184840Y85236D02*
X184644Y85433D01*
X184250D01*
X184053Y85236D01*
Y85039D01*
X184250Y84842D01*
X184644D01*
X184840Y84645D01*
Y84449D01*
X184644Y84252D01*
X184250D01*
X184053Y84449D01*
X185824Y85433D02*
X185431D01*
X185234Y85236D01*
Y84449D01*
X185431Y84252D01*
X185824D01*
X186021Y84449D01*
Y85236D01*
X185824Y85433D01*
X186415D02*
Y84252D01*
X187202D01*
X179134Y74606D02*
X178937Y74803D01*
X178543D01*
X178347Y74606D01*
Y74409D01*
X178543Y74212D01*
X178937D01*
X179134Y74016D01*
Y73819D01*
X178937Y73622D01*
X178543D01*
X178347Y73819D01*
X179527Y74803D02*
Y73622D01*
X179921Y74016D01*
X180314Y73622D01*
Y74803D01*
X181298D02*
X180905D01*
X180708Y74606D01*
Y73819D01*
X180905Y73622D01*
X181298D01*
X181495Y73819D01*
Y74606D01*
X181298Y74803D01*
X181889Y73425D02*
X182676D01*
X183069Y74803D02*
X183463D01*
X183266D01*
Y73622D01*
X183069D01*
X183463D01*
X184840Y74606D02*
X184644Y74803D01*
X184250D01*
X184053Y74606D01*
Y74409D01*
X184250Y74212D01*
X184644D01*
X184840Y74016D01*
Y73819D01*
X184644Y73622D01*
X184250D01*
X184053Y73819D01*
X185824Y74803D02*
X185431D01*
X185234Y74606D01*
Y73819D01*
X185431Y73622D01*
X185824D01*
X186021Y73819D01*
Y74606D01*
X185824Y74803D01*
X186415D02*
Y73622D01*
X187202D01*
D17*
X189400Y95149D02*
X191499Y92000D01*
Y95149D02*
X189400Y92000D01*
X194648Y94624D02*
X194123Y95149D01*
X193073D01*
X192549Y94624D01*
Y94099D01*
X193073Y93574D01*
X194123D01*
X194648Y93050D01*
Y92525D01*
X194123Y92000D01*
X193073D01*
X192549Y92525D01*
X195697Y92000D02*
X196747D01*
X196222D01*
Y95149D01*
X195697Y94624D01*
M02*
