%TF.GenerationSoftware,Altium Limited,Altium Designer,21.2.1 (34)*%
G04 Layer_Color=8388736*
%FSLAX26Y26*%
%MOIN*%
%TF.SameCoordinates,A0A043E5-24E2-464B-A4FE-AC519CE3A301*%
%TF.FilePolarity,Negative*%
%TF.FileFunction,Soldermask,Top*%
%TF.Part,Single*%
G01*
G75*
%TA.AperFunction,ComponentPad*%
%ADD23C,0.067055*%
%TA.AperFunction,SMDPad,CuDef*%
%ADD27R,0.043433X0.043433*%
%ADD28R,0.050130X0.082800*%
D23*
X1299213Y222441D02*
D03*
Y322441D02*
D03*
Y422441D02*
D03*
Y522441D02*
D03*
Y622441D02*
D03*
Y722441D02*
D03*
D27*
X1258054Y118110D02*
D03*
X1324983D02*
D03*
D28*
X804528Y184251D02*
D03*
X754528D02*
D03*
X704528D02*
D03*
X654528D02*
D03*
X604528D02*
D03*
X554528D02*
D03*
X404528Y760631D02*
D03*
X454528D02*
D03*
X504528D02*
D03*
Y184251D02*
D03*
X554528Y760631D02*
D03*
X604528D02*
D03*
X654528D02*
D03*
X704528D02*
D03*
X754528D02*
D03*
X804528D02*
D03*
X854528D02*
D03*
X904528D02*
D03*
X954528D02*
D03*
X1004528D02*
D03*
X454528Y184251D02*
D03*
X1054528Y760631D02*
D03*
X1104528D02*
D03*
X1154528D02*
D03*
Y184251D02*
D03*
X1104528D02*
D03*
X1054528D02*
D03*
X1004528D02*
D03*
X954528D02*
D03*
X904528D02*
D03*
X854528D02*
D03*
X404528D02*
D03*
%TF.MD5,a00941519510f7c006bfab1e22e22dfd*%
M02*
