G04*
G04 #@! TF.GenerationSoftware,Altium Limited,Altium Designer,19.1.8 (144)*
G04*
G04 Layer_Color=8421504*
%FSLAX25Y25*%
%MOIN*%
G70*
G01*
G75*
%ADD18R,0.04213X0.07480*%
%ADD19O,0.07480X0.02362*%
D18*
X39370Y30236D02*
D03*
X84370D02*
D03*
X89370D02*
D03*
X94370D02*
D03*
X99370D02*
D03*
X104370D02*
D03*
X109370D02*
D03*
X114370D02*
D03*
Y87874D02*
D03*
X109370D02*
D03*
X104370D02*
D03*
X44370Y30236D02*
D03*
X99370Y87874D02*
D03*
X94370D02*
D03*
X89370D02*
D03*
X84370D02*
D03*
X79370D02*
D03*
X74370D02*
D03*
X69370D02*
D03*
X64370D02*
D03*
X59370D02*
D03*
X54370D02*
D03*
X49370Y30236D02*
D03*
Y87874D02*
D03*
X44370D02*
D03*
X39370D02*
D03*
X54370Y30236D02*
D03*
X59370D02*
D03*
X64370D02*
D03*
X69370D02*
D03*
X74370D02*
D03*
X79370D02*
D03*
D19*
X131693Y76555D02*
D03*
Y71555D02*
D03*
Y66555D02*
D03*
Y61555D02*
D03*
Y56555D02*
D03*
Y51555D02*
D03*
Y46555D02*
D03*
Y41555D02*
D03*
X169095Y76555D02*
D03*
Y71555D02*
D03*
Y66555D02*
D03*
Y61555D02*
D03*
Y56555D02*
D03*
Y51555D02*
D03*
Y46555D02*
D03*
Y41555D02*
D03*
M02*
