%TF.GenerationSoftware,Altium Limited,Altium Designer,21.2.1 (34)*%
G04 Layer_Physical_Order=1*
G04 Layer_Color=255*
%FSLAX26Y26*%
%MOIN*%
%TF.SameCoordinates,A0A043E5-24E2-464B-A4FE-AC519CE3A301*%
%TF.FilePolarity,Positive*%
%TF.FileFunction,Copper,L1,Top,Signal*%
%TF.Part,Single*%
G01*
G75*
%TA.AperFunction,SMDPad,CuDef*%
%ADD10R,0.035433X0.035433*%
%ADD11R,0.042130X0.074800*%
%TA.AperFunction,Conductor*%
%ADD12C,0.019685*%
%TA.AperFunction,ComponentPad*%
%ADD13C,0.059055*%
%TA.AperFunction,ViaPad*%
%ADD14C,0.050000*%
G36*
X1377953Y204099D02*
X1372953Y199970D01*
X1368110Y200608D01*
X1359495Y199473D01*
X1351468Y196148D01*
X1344574Y190859D01*
X1339285Y183965D01*
X1335960Y175938D01*
X1335150Y169791D01*
X1319993Y154634D01*
X1316050Y148732D01*
X1315074Y143827D01*
X1299267D01*
Y92394D01*
X1350700D01*
Y124226D01*
X1351049Y125984D01*
X1351049Y125985D01*
Y133975D01*
X1354867Y137089D01*
X1359495Y135172D01*
X1368110Y134038D01*
X1372953Y134676D01*
X1377953Y130547D01*
Y78740D01*
X78740D01*
Y866142D01*
X484173D01*
X485690Y861142D01*
X482965Y859321D01*
X441930Y818285D01*
X437986Y812383D01*
X436722Y806031D01*
X375463D01*
Y715231D01*
X475509D01*
Y698127D01*
X475484Y698117D01*
X468590Y692827D01*
X463300Y685934D01*
X459975Y677906D01*
X458841Y669291D01*
X459975Y660677D01*
X463300Y652649D01*
X468590Y645755D01*
X475484Y640466D01*
X483511Y637141D01*
X492126Y636006D01*
X500741Y637141D01*
X508768Y640466D01*
X515662Y645755D01*
X520952Y652649D01*
X524277Y660677D01*
X525411Y669291D01*
X524277Y677906D01*
X520952Y685934D01*
X515662Y692827D01*
X511893Y695719D01*
Y715231D01*
X623463D01*
Y713231D01*
X644528D01*
Y760631D01*
Y808031D01*
X623463D01*
Y806031D01*
X487663D01*
X485750Y810650D01*
X503364Y828265D01*
X1183409D01*
X1267427Y744247D01*
X1267678Y742989D01*
X1266432Y741366D01*
X1262651Y732237D01*
X1261361Y722441D01*
X1262651Y712644D01*
X1266432Y703515D01*
X1272448Y695676D01*
X1280287Y689661D01*
X1289416Y685879D01*
X1299213Y684590D01*
X1309009Y685879D01*
X1318138Y689661D01*
X1325977Y695676D01*
X1331993Y703515D01*
X1335774Y712644D01*
X1337064Y722441D01*
X1335774Y732237D01*
X1331993Y741366D01*
X1325977Y749206D01*
X1318138Y755221D01*
X1309009Y759002D01*
X1301382Y760007D01*
X1297877Y765252D01*
X1203809Y859321D01*
X1201083Y861142D01*
X1202600Y866142D01*
X1377953D01*
Y204099D01*
D02*
G37*
%LPC*%
G36*
X794528Y808031D02*
X773463D01*
Y806031D01*
X735593D01*
Y808031D01*
X714528D01*
Y760631D01*
Y713231D01*
X735593D01*
Y715231D01*
X773463D01*
Y713231D01*
X794528D01*
Y760631D01*
Y808031D01*
D02*
G37*
G36*
X835593D02*
X814528D01*
Y760631D01*
Y713231D01*
X835593D01*
Y715231D01*
X1183593D01*
Y806031D01*
X835593D01*
Y808031D01*
D02*
G37*
G36*
X694528D02*
X664528D01*
Y760631D01*
Y713231D01*
X694528D01*
Y760631D01*
Y808031D01*
D02*
G37*
G36*
X1299213Y660292D02*
X1289416Y659002D01*
X1280287Y655221D01*
X1272448Y649206D01*
X1266432Y641366D01*
X1262651Y632237D01*
X1261361Y622441D01*
X1262651Y612644D01*
X1266432Y603515D01*
X1272448Y595676D01*
X1280287Y589661D01*
X1289416Y585879D01*
X1299213Y584590D01*
X1309009Y585879D01*
X1318138Y589661D01*
X1325977Y595676D01*
X1331993Y603515D01*
X1335774Y612644D01*
X1337064Y622441D01*
X1335774Y632237D01*
X1331993Y641366D01*
X1325977Y649206D01*
X1318138Y655221D01*
X1309009Y659002D01*
X1299213Y660292D01*
D02*
G37*
G36*
X1309213Y560993D02*
Y532441D01*
X1337765D01*
X1337723Y532760D01*
X1333740Y542375D01*
X1327404Y550632D01*
X1319147Y556968D01*
X1309531Y560951D01*
X1309213Y560993D01*
D02*
G37*
G36*
X1289213D02*
X1288894Y560951D01*
X1279278Y556968D01*
X1271021Y550632D01*
X1264685Y542375D01*
X1260703Y532760D01*
X1260660Y532441D01*
X1289213D01*
Y560993D01*
D02*
G37*
G36*
X1337765Y512441D02*
X1309213D01*
Y483889D01*
X1309531Y483931D01*
X1319147Y487914D01*
X1327404Y494250D01*
X1333740Y502507D01*
X1337723Y512122D01*
X1337765Y512441D01*
D02*
G37*
G36*
X1289213D02*
X1260660D01*
X1260703Y512122D01*
X1264685Y502507D01*
X1271021Y494250D01*
X1279278Y487914D01*
X1288894Y483931D01*
X1289213Y483889D01*
Y512441D01*
D02*
G37*
G36*
X1190945Y675480D02*
X856299D01*
X853178Y674859D01*
X850532Y673091D01*
X848763Y670444D01*
X848143Y667323D01*
Y297244D01*
X848763Y294123D01*
X850532Y291476D01*
X853178Y289708D01*
X856299Y289087D01*
X1182024D01*
X1183937Y284468D01*
X1178093Y278624D01*
X1036184D01*
X1036184Y278624D01*
X1029222Y277239D01*
X1023320Y273296D01*
X1023320Y273295D01*
X991929Y241905D01*
X987986Y236003D01*
X986722Y229651D01*
X785593D01*
Y231651D01*
X764528D01*
Y184251D01*
Y136851D01*
X785593D01*
Y138851D01*
X1159924D01*
X1161838Y134232D01*
X1154066Y126460D01*
X593521D01*
X585750Y134232D01*
X587663Y138851D01*
X723463D01*
Y136851D01*
X744528D01*
Y184251D01*
Y231651D01*
X723463D01*
Y229651D01*
X661893D01*
Y244961D01*
X666249Y246765D01*
X673142Y252055D01*
X678432Y258948D01*
X681757Y266976D01*
X682891Y275591D01*
X681757Y284205D01*
X678432Y292233D01*
X673142Y299127D01*
X666249Y304416D01*
X658221Y307741D01*
X649606Y308875D01*
X640992Y307741D01*
X632964Y304416D01*
X626070Y299127D01*
X620781Y292233D01*
X617456Y284205D01*
X616322Y275591D01*
X617456Y266976D01*
X620781Y258948D01*
X625509Y252787D01*
Y229651D01*
X375463D01*
Y138851D01*
X536722D01*
X537986Y132499D01*
X541929Y126597D01*
X573122Y95404D01*
X573122Y95404D01*
X579024Y91460D01*
X585986Y90076D01*
X1161601D01*
X1161601Y90076D01*
X1168563Y91460D01*
X1174465Y95404D01*
X1193915Y114854D01*
X1195847Y116145D01*
X1206299Y126596D01*
X1206299Y126597D01*
X1207589Y128528D01*
X1225655Y146594D01*
X1226060Y146387D01*
X1226060Y146387D01*
X1230337Y144205D01*
X1230337Y141499D01*
Y128110D01*
X1248054D01*
Y145827D01*
X1235026D01*
X1231959Y145827D01*
X1229570Y150509D01*
X1253021Y173960D01*
X1253021Y173960D01*
X1256965Y179862D01*
X1258350Y186824D01*
X1258350Y186824D01*
Y209963D01*
X1263350Y210958D01*
X1266432Y203515D01*
X1272448Y195676D01*
X1280287Y189661D01*
X1289416Y185879D01*
X1299213Y184590D01*
X1309009Y185879D01*
X1318138Y189661D01*
X1325977Y195676D01*
X1331993Y203515D01*
X1335774Y212644D01*
X1337064Y222441D01*
X1335774Y232238D01*
X1331993Y241367D01*
X1325977Y249206D01*
X1318138Y255221D01*
X1309009Y259002D01*
X1299213Y260292D01*
X1296697Y259961D01*
X1294361Y264697D01*
X1304543Y274878D01*
X1304543Y274879D01*
X1308487Y280781D01*
X1309545Y286101D01*
X1318138Y289661D01*
X1325977Y295676D01*
X1331993Y303515D01*
X1335774Y312644D01*
X1337064Y322441D01*
X1335774Y332238D01*
X1331993Y341366D01*
X1325977Y349206D01*
X1318138Y355221D01*
X1309009Y359002D01*
X1299213Y360292D01*
X1289416Y359002D01*
X1280287Y355221D01*
X1272448Y349206D01*
X1266432Y341366D01*
X1262651Y332238D01*
X1261361Y322441D01*
X1262651Y312644D01*
X1266432Y303515D01*
X1272448Y295676D01*
X1272536Y294327D01*
X1227294Y249084D01*
X1223350Y243182D01*
X1221965Y236220D01*
X1221965Y236220D01*
Y194359D01*
X1188212Y160606D01*
X1183593Y162519D01*
Y229651D01*
X1037663D01*
X1035750Y234270D01*
X1043719Y242240D01*
X1185628D01*
X1185629Y242240D01*
X1192591Y243625D01*
X1198493Y247568D01*
X1233336Y282412D01*
X1233336Y282412D01*
X1237280Y288314D01*
X1238665Y295276D01*
Y325512D01*
X1297913Y384761D01*
X1299213Y384590D01*
X1309009Y385879D01*
X1318138Y389661D01*
X1325977Y395676D01*
X1331993Y403515D01*
X1335774Y412644D01*
X1337064Y422441D01*
X1335774Y432238D01*
X1331993Y441366D01*
X1325977Y449206D01*
X1318138Y455221D01*
X1309009Y459002D01*
X1299213Y460292D01*
X1289416Y459002D01*
X1280287Y455221D01*
X1272448Y449206D01*
X1266432Y441366D01*
X1262651Y432238D01*
X1261361Y422441D01*
X1262651Y412644D01*
X1266075Y404378D01*
X1207609Y345911D01*
X1204102Y340662D01*
X1201527Y340705D01*
X1199102Y341494D01*
Y667323D01*
X1198481Y670444D01*
X1196713Y673091D01*
X1194066Y674859D01*
X1190945Y675480D01*
D02*
G37*
G36*
X1268054Y145827D02*
Y128110D01*
X1285770D01*
Y145827D01*
X1268054D01*
D02*
G37*
G36*
X1285770Y108110D02*
X1268054D01*
Y90394D01*
X1285770D01*
Y108110D01*
D02*
G37*
G36*
X1248054D02*
X1230337D01*
Y90394D01*
X1248054D01*
Y108110D01*
D02*
G37*
%LPD*%
D10*
X1258054Y118110D02*
D03*
X1324983D02*
D03*
D11*
X804528Y184251D02*
D03*
X754528D02*
D03*
X704528D02*
D03*
X654528D02*
D03*
X604528D02*
D03*
X554528D02*
D03*
X404528Y760631D02*
D03*
X454528D02*
D03*
X504528D02*
D03*
Y184251D02*
D03*
X554528Y760631D02*
D03*
X604528D02*
D03*
X654528D02*
D03*
X704528D02*
D03*
X754528D02*
D03*
X804528D02*
D03*
X854528D02*
D03*
X904528D02*
D03*
X954528D02*
D03*
X1004528D02*
D03*
X454528Y184251D02*
D03*
X1054528Y760631D02*
D03*
X1104528D02*
D03*
X1154528D02*
D03*
Y184251D02*
D03*
X1104528D02*
D03*
X1054528D02*
D03*
X1004528D02*
D03*
X954528D02*
D03*
X904528D02*
D03*
X854528D02*
D03*
X404528D02*
D03*
D12*
X1185629Y260432D02*
X1220472Y295276D01*
X1036184Y260432D02*
X1185629D01*
X1220472Y295276D02*
Y333047D01*
X1299213Y411787D01*
X1332857Y125984D02*
Y141770D01*
X1324983Y118110D02*
X1332857Y125984D01*
Y141770D02*
X1352610Y161522D01*
X1362310D01*
X1368110Y167323D01*
X1291679Y314908D02*
X1299213Y322441D01*
X1240158Y236220D02*
X1291679Y287743D01*
Y314908D01*
X1240158Y186824D02*
Y236220D01*
X1193435Y140101D02*
X1240158Y186824D01*
X1299213Y411787D02*
Y422441D01*
X1182983Y129008D02*
X1193435Y139460D01*
X1182342Y129008D02*
X1182983D01*
X1193435Y139460D02*
Y140101D01*
X585986Y108268D02*
X1161601D01*
X1182342Y129008D01*
X643701Y261482D02*
X649606Y267387D01*
X448819Y760631D02*
X454793Y766605D01*
X643701Y184251D02*
X644916Y185466D01*
X492126Y669291D02*
X493701Y670866D01*
X649606Y267387D02*
Y275591D01*
X493701Y670866D02*
Y760631D01*
X643701Y184251D02*
Y261482D01*
X554793Y139460D02*
X585986Y108268D01*
X554793Y139460D02*
Y173159D01*
X1004793Y229042D02*
X1036184Y260432D01*
X1004793Y195344D02*
Y229042D01*
X1190945Y846457D02*
X1285014Y752388D01*
X1299213Y722441D02*
Y733094D01*
X1285014Y747293D02*
X1299213Y733094D01*
X1285014Y747293D02*
Y752388D01*
X495828Y846457D02*
X1190945D01*
X443701Y760631D02*
X454793Y771723D01*
Y805422D01*
X495828Y846457D01*
D13*
X1299213Y222441D02*
D03*
Y322441D02*
D03*
Y422441D02*
D03*
Y522441D02*
D03*
Y622441D02*
D03*
Y722441D02*
D03*
D14*
X1368110Y167323D02*
D03*
X649606Y275591D02*
D03*
X492126Y669291D02*
D03*
%TF.MD5,b70ccfc71279605f1adc64bff6a2c786*%
M02*
