G04*
G04 #@! TF.GenerationSoftware,Altium Limited,Altium Designer,19.1.8 (144)*
G04*
G04 Layer_Color=8388736*
%FSLAX25Y25*%
%MOIN*%
G70*
G01*
G75*
%ADD20R,0.05013X0.08280*%
%ADD21O,0.08280X0.03162*%
%ADD22C,0.06706*%
%ADD23C,0.03162*%
D20*
X39370Y30236D02*
D03*
X84370D02*
D03*
X89370D02*
D03*
X94370D02*
D03*
X99370D02*
D03*
X104370D02*
D03*
X109370D02*
D03*
X114370D02*
D03*
Y87874D02*
D03*
X109370D02*
D03*
X104370D02*
D03*
X44370Y30236D02*
D03*
X99370Y87874D02*
D03*
X94370D02*
D03*
X89370D02*
D03*
X84370D02*
D03*
X79370D02*
D03*
X74370D02*
D03*
X69370D02*
D03*
X64370D02*
D03*
X59370D02*
D03*
X54370D02*
D03*
X49370Y30236D02*
D03*
Y87874D02*
D03*
X44370D02*
D03*
X39370D02*
D03*
X54370Y30236D02*
D03*
X59370D02*
D03*
X64370D02*
D03*
X69370D02*
D03*
X74370D02*
D03*
X79370D02*
D03*
D21*
X131693Y76555D02*
D03*
Y71555D02*
D03*
Y66555D02*
D03*
Y61555D02*
D03*
Y56555D02*
D03*
Y51555D02*
D03*
Y46555D02*
D03*
Y41555D02*
D03*
X169095Y76555D02*
D03*
Y71555D02*
D03*
Y66555D02*
D03*
Y61555D02*
D03*
Y56555D02*
D03*
Y51555D02*
D03*
Y46555D02*
D03*
Y41555D02*
D03*
D22*
X204724Y11811D02*
D03*
Y106299D02*
D03*
X11811D02*
D03*
X156220Y89213D02*
D03*
X146221D02*
D03*
X192913Y84055D02*
D03*
Y74055D02*
D03*
Y64055D02*
D03*
Y54055D02*
D03*
Y44055D02*
D03*
Y34055D02*
D03*
X156220Y29213D02*
D03*
X146221D02*
D03*
X156220Y109213D02*
D03*
X146221D02*
D03*
X156220Y9213D02*
D03*
X146221D02*
D03*
X156220Y19213D02*
D03*
X146221D02*
D03*
X156220Y99213D02*
D03*
X146221D02*
D03*
X11811Y11811D02*
D03*
D23*
X168898Y80709D02*
D03*
X123622Y76378D02*
D03*
Y65748D02*
D03*
X138976Y51575D02*
D03*
X139764Y56693D02*
D03*
X48819Y79921D02*
D03*
X54331Y37402D02*
D03*
X64567D02*
D03*
M02*
